solid OpenSCAD_Model
  facet normal 1 0 0
    outer loop
      vertex 8.5 8.5 8
      vertex 8.5 7.1 2.15
      vertex 8.5 8.5 0
    endloop
  endfacet
  facet normal 1 0 0
    outer loop
      vertex 8.5 8.5 8
      vertex 8.5 0.9 2.15
      vertex 8.5 7.1 2.15
    endloop
  endfacet
  facet normal 1 0 0
    outer loop
      vertex 8.5 0 0
      vertex 8.5 0.9 2.15
      vertex 8.5 0 3
    endloop
  endfacet
  facet normal 1 0 0
    outer loop
      vertex 8.5 8.5 8
      vertex 8.5 0 3
      vertex 8.5 0.9 2.15
    endloop
  endfacet
  facet normal 1 -0 0
    outer loop
      vertex 8.5 -8.5 8
      vertex 8.5 0 3
      vertex 8.5 8.5 8
    endloop
  endfacet
  facet normal 1 0 0
    outer loop
      vertex 8.5 0 3
      vertex 8.5 -8.5 8
      vertex 8.5 -8.5 3
    endloop
  endfacet
  facet normal 1 0 0
    outer loop
      vertex 8.5 8.5 0
      vertex 8.5 7.1 2.15
      vertex 8.5 7.1 0
    endloop
  endfacet
  facet normal 1 0 0
    outer loop
      vertex 8.5 0.9 2.15
      vertex 8.5 0 0
      vertex 8.5 0.9 0
    endloop
  endfacet
  facet normal 0 0 1
    outer loop
      vertex 8.5 8.5 8
      vertex 7 7 8
      vertex 8.5 -8.5 8
    endloop
  endfacet
  facet normal 0 0 1
    outer loop
      vertex 8.5 8.5 8
      vertex -7 7 8
      vertex 7 7 8
    endloop
  endfacet
  facet normal 0 0 1
    outer loop
      vertex -7 7 8
      vertex -8.5 8.5 8
      vertex -7 -7 8
    endloop
  endfacet
  facet normal -0 0 1
    outer loop
      vertex -8.5 8.5 8
      vertex -7 7 8
      vertex 8.5 8.5 8
    endloop
  endfacet
  facet normal -0 0 1
    outer loop
      vertex 7 -7 8
      vertex 8.5 -8.5 8
      vertex 7 7 8
    endloop
  endfacet
  facet normal -0 0 1
    outer loop
      vertex -7 -7 8
      vertex 8.5 -8.5 8
      vertex 7 -7 8
    endloop
  endfacet
  facet normal 0 0 1
    outer loop
      vertex -7 -7 8
      vertex -8.5 -8.5 8
      vertex 8.5 -8.5 8
    endloop
  endfacet
  facet normal 0 0 1
    outer loop
      vertex -8.5 -8.5 8
      vertex -7 -7 8
      vertex -8.5 8.5 8
    endloop
  endfacet
  facet normal 0 0 -1
    outer loop
      vertex 8.5 -8.5 3
      vertex 7 -7 3
      vertex 8.5 0 3
    endloop
  endfacet
  facet normal 0 0 -1
    outer loop
      vertex 8.5 -8.5 3
      vertex -7 -7 3
      vertex 7 -7 3
    endloop
  endfacet
  facet normal 0 0 -1
    outer loop
      vertex -8.5 -8.5 3
      vertex -7 -7 3
      vertex 8.5 -8.5 3
    endloop
  endfacet
  facet normal 0 0 -1
    outer loop
      vertex -8.5 0 3
      vertex -7 -7 3
      vertex -8.5 -8.5 3
    endloop
  endfacet
  facet normal 0 0 -1
    outer loop
      vertex -7 -7 3
      vertex -8.5 0 3
      vertex -7 0 3
    endloop
  endfacet
  facet normal -0 0 -1
    outer loop
      vertex 8.5 0 3
      vertex 7 -7 3
      vertex 7 0 3
    endloop
  endfacet
  facet normal -0 0 1
    outer loop
      vertex 5.26 2.54 3
      vertex 7 0 3
      vertex 7 7 3
    endloop
  endfacet
  facet normal 0 0 1
    outer loop
      vertex 7 0 3
      vertex 5.60104 0.60104 3
      vertex 5.85 0 3
    endloop
  endfacet
  facet normal 0 0 1
    outer loop
      vertex 7 0 3
      vertex 5.26 2.54 3
      vertex 5.60104 0.60104 3
    endloop
  endfacet
  facet normal 0 0 1
    outer loop
      vertex 7 7 3
      vertex 4.8353 3.5653 3
      vertex 5.26 2.54 3
    endloop
  endfacet
  facet normal 0 0 1
    outer loop
      vertex 7 7 3
      vertex 3.99 5.08 3
      vertex 4.8353 3.5653 3
    endloop
  endfacet
  facet normal 0 0 1
    outer loop
      vertex 7 7 3
      vertex 3.5653 6.1053 3
      vertex 3.99 5.08 3
    endloop
  endfacet
  facet normal 0 0 1
    outer loop
      vertex 7 7 3
      vertex 2.54 6.53 3
      vertex 3.5653 6.1053 3
    endloop
  endfacet
  facet normal 0 0 1
    outer loop
      vertex 1.51469 4.0547 3
      vertex 0 2 3
      vertex 1 1.73205 3
    endloop
  endfacet
  facet normal 0 0 1
    outer loop
      vertex 1.51469 4.0547 3
      vertex -1.51469 4.0547 3
      vertex 0 2 3
    endloop
  endfacet
  facet normal 0 0 1
    outer loop
      vertex -1.09 5.08 3
      vertex 1.09 5.08 3
      vertex 1.51469 6.1053 3
    endloop
  endfacet
  facet normal 0 0 1
    outer loop
      vertex 1.09 5.08 3
      vertex -1.09 5.08 3
      vertex -1.51469 4.0547 3
    endloop
  endfacet
  facet normal 0 0 1
    outer loop
      vertex -1.51469 6.1053 3
      vertex 1.51469 6.1053 3
      vertex 2.54 6.53 3
    endloop
  endfacet
  facet normal 0 0 1
    outer loop
      vertex 1.51469 6.1053 3
      vertex -1.51469 6.1053 3
      vertex -1.09 5.08 3
    endloop
  endfacet
  facet normal 0 0 1
    outer loop
      vertex -2.54 6.53 3
      vertex 2.54 6.53 3
      vertex 7 7 3
    endloop
  endfacet
  facet normal 0 0 1
    outer loop
      vertex 2.54 6.53 3
      vertex -2.54 6.53 3
      vertex -1.51469 6.1053 3
    endloop
  endfacet
  facet normal 0 0 1
    outer loop
      vertex -7 7 3
      vertex -3.99 5.08 3
      vertex -3.5653 6.1053 3
    endloop
  endfacet
  facet normal 0 0 1
    outer loop
      vertex -7 0 3
      vertex -5.60104 0.60104 3
      vertex -5.26 2.54 3
    endloop
  endfacet
  facet normal -0 0 1
    outer loop
      vertex -7 7 3
      vertex -2.54 6.53 3
      vertex 7 7 3
    endloop
  endfacet
  facet normal 0 0 1
    outer loop
      vertex -7 7 3
      vertex -3.5653 6.1053 3
      vertex -2.54 6.53 3
    endloop
  endfacet
  facet normal 0 0 1
    outer loop
      vertex -3.99 5.08 3
      vertex -7 7 3
      vertex -4.8353 3.5653 3
    endloop
  endfacet
  facet normal 0 0 1
    outer loop
      vertex -7 7 3
      vertex -5.26 2.54 3
      vertex -4.8353 3.5653 3
    endloop
  endfacet
  facet normal 0 0 1
    outer loop
      vertex -7 0 3
      vertex -5.26 2.54 3
      vertex -7 7 3
    endloop
  endfacet
  facet normal 0 0 1
    outer loop
      vertex -5.60104 0.60104 3
      vertex -7 0 3
      vertex -5.85 0 3
    endloop
  endfacet
  facet normal -0 0 1
    outer loop
      vertex 4.8353 1.51469 3
      vertex 5.60104 0.60104 3
      vertex 5.26 2.54 3
    endloop
  endfacet
  facet normal 0 0 1
    outer loop
      vertex 5.60104 0.60104 3
      vertex 4.8353 1.51469 3
      vertex 5 0.849999 3
    endloop
  endfacet
  facet normal 0 0 1
    outer loop
      vertex 4.8353 1.51469 3
      vertex 4.39896 0.60104 3
      vertex 5 0.849999 3
    endloop
  endfacet
  facet normal -0 0 1
    outer loop
      vertex 3.81 1.09 3
      vertex 4.39896 0.60104 3
      vertex 4.8353 1.51469 3
    endloop
  endfacet
  facet normal 0 0 1
    outer loop
      vertex 3.81 1.09 3
      vertex 4.15 0 3
      vertex 4.39896 0.60104 3
    endloop
  endfacet
  facet normal 0 0 1
    outer loop
      vertex 2 0 3
      vertex 3.81 1.09 3
      vertex 2.78469 1.51469 3
    endloop
  endfacet
  facet normal 0 0 1
    outer loop
      vertex 3.81 1.09 3
      vertex 2 0 3
      vertex 4.15 0 3
    endloop
  endfacet
  facet normal 0 0 1
    outer loop
      vertex 1.73205 1 3
      vertex 2.78469 1.51469 3
      vertex 2.36 2.54 3
    endloop
  endfacet
  facet normal 0 0 1
    outer loop
      vertex 3.99 5.08 3
      vertex 3.81 3.99 3
      vertex 4.8353 3.5653 3
    endloop
  endfacet
  facet normal -0 0 1
    outer loop
      vertex 3.5653 4.0547 3
      vertex 3.81 3.99 3
      vertex 3.99 5.08 3
    endloop
  endfacet
  facet normal 0 0 1
    outer loop
      vertex 3.5653 4.0547 3
      vertex 2.78469 3.5653 3
      vertex 3.81 3.99 3
    endloop
  endfacet
  facet normal -0 0 1
    outer loop
      vertex 2.54 3.63 3
      vertex 2.78469 3.5653 3
      vertex 3.5653 4.0547 3
    endloop
  endfacet
  facet normal 0 0 1
    outer loop
      vertex 2.54 3.63 3
      vertex 2.36 2.54 3
      vertex 2.78469 3.5653 3
    endloop
  endfacet
  facet normal 0 0 1
    outer loop
      vertex 2.78469 1.51469 3
      vertex 1.73205 1 3
      vertex 2 0 3
    endloop
  endfacet
  facet normal 0 0 1
    outer loop
      vertex 1.51469 4.0547 3
      vertex 2.36 2.54 3
      vertex 2.54 3.63 3
    endloop
  endfacet
  facet normal 0 0 1
    outer loop
      vertex 2.36 2.54 3
      vertex 1.51469 4.0547 3
      vertex 1 1.73205 3
    endloop
  endfacet
  facet normal 0 0 1
    outer loop
      vertex -1.51469 4.0547 3
      vertex 1.51469 4.0547 3
      vertex 1.09 5.08 3
    endloop
  endfacet
  facet normal 0 0 1
    outer loop
      vertex 2.36 2.54 3
      vertex 1 1.73205 3
      vertex 1.73205 1 3
    endloop
  endfacet
  facet normal 0 0 1
    outer loop
      vertex 0 2 3
      vertex -1.51469 4.0547 3
      vertex -1 1.73205 3
    endloop
  endfacet
  facet normal -0 0 1
    outer loop
      vertex -2.36 2.54 3
      vertex -1 1.73205 3
      vertex -1.51469 4.0547 3
    endloop
  endfacet
  facet normal 0 0 1
    outer loop
      vertex -1 1.73205 3
      vertex -2.36 2.54 3
      vertex -1.73205 1 3
    endloop
  endfacet
  facet normal -0 0 1
    outer loop
      vertex -2.78469 1.51469 3
      vertex -1.73205 1 3
      vertex -2.36 2.54 3
    endloop
  endfacet
  facet normal -0 0 1
    outer loop
      vertex -2.54 3.63 3
      vertex -2.36 2.54 3
      vertex -1.51469 4.0547 3
    endloop
  endfacet
  facet normal 0 0 1
    outer loop
      vertex -2.54 3.63 3
      vertex -2.78469 3.5653 3
      vertex -2.36 2.54 3
    endloop
  endfacet
  facet normal 0 0 1
    outer loop
      vertex -3.5653 4.0547 3
      vertex -2.78469 3.5653 3
      vertex -2.54 3.63 3
    endloop
  endfacet
  facet normal 0 0 1
    outer loop
      vertex -3.5653 4.0547 3
      vertex -3.81 3.99 3
      vertex -2.78469 3.5653 3
    endloop
  endfacet
  facet normal 0 0 1
    outer loop
      vertex -3.99 5.08 3
      vertex -3.81 3.99 3
      vertex -3.5653 4.0547 3
    endloop
  endfacet
  facet normal 0 0 1
    outer loop
      vertex -3.81 3.99 3
      vertex -3.99 5.08 3
      vertex -4.8353 3.5653 3
    endloop
  endfacet
  facet normal 0 0 1
    outer loop
      vertex -1.73205 1 3
      vertex -2.78469 1.51469 3
      vertex -2 0 3
    endloop
  endfacet
  facet normal -0 0 1
    outer loop
      vertex -3.81 1.09 3
      vertex -2 0 3
      vertex -2.78469 1.51469 3
    endloop
  endfacet
  facet normal 0 0 1
    outer loop
      vertex -3.81 1.09 3
      vertex -4.15 0 3
      vertex -2 0 3
    endloop
  endfacet
  facet normal 0 0 1
    outer loop
      vertex -3.81 1.09 3
      vertex -4.39896 0.60104 3
      vertex -4.15 0 3
    endloop
  endfacet
  facet normal 0 0 1
    outer loop
      vertex -4.8353 1.51469 3
      vertex -4.39896 0.60104 3
      vertex -3.81 1.09 3
    endloop
  endfacet
  facet normal 0 0 1
    outer loop
      vertex -4.8353 1.51469 3
      vertex -5 0.849999 3
      vertex -4.39896 0.60104 3
    endloop
  endfacet
  facet normal 0 0 1
    outer loop
      vertex -5.60104 0.60104 3
      vertex -4.8353 1.51469 3
      vertex -5.26 2.54 3
    endloop
  endfacet
  facet normal 0 0 1
    outer loop
      vertex -4.8353 1.51469 3
      vertex -5.60104 0.60104 3
      vertex -5 0.849999 3
    endloop
  endfacet
  facet normal -1 0 0
    outer loop
      vertex -8.5 0.9 0
      vertex -8.5 0 0
      vertex -8.5 0.9 2.15
    endloop
  endfacet
  facet normal -1 0 0
    outer loop
      vertex -8.5 7.1 2.15
      vertex -8.5 8.5 0
      vertex -8.5 7.1 0
    endloop
  endfacet
  facet normal -1 0 0
    outer loop
      vertex -8.5 8.5 0
      vertex -8.5 7.1 2.15
      vertex -8.5 8.5 8
    endloop
  endfacet
  facet normal -1 0 0
    outer loop
      vertex -8.5 0.9 2.15
      vertex -8.5 8.5 8
      vertex -8.5 7.1 2.15
    endloop
  endfacet
  facet normal -1 0 0
    outer loop
      vertex -8.5 0 3
      vertex -8.5 0.9 2.15
      vertex -8.5 0 0
    endloop
  endfacet
  facet normal -1 0 0
    outer loop
      vertex -8.5 0 3
      vertex -8.5 8.5 8
      vertex -8.5 0.9 2.15
    endloop
  endfacet
  facet normal -1 0 0
    outer loop
      vertex -8.5 -8.5 8
      vertex -8.5 0 3
      vertex -8.5 -8.5 3
    endloop
  endfacet
  facet normal -1 0 0
    outer loop
      vertex -8.5 0 3
      vertex -8.5 -8.5 8
      vertex -8.5 8.5 8
    endloop
  endfacet
  facet normal 0 1 -0
    outer loop
      vertex 8.5 8.5 0
      vertex -8.5 8.5 8
      vertex 8.5 8.5 8
    endloop
  endfacet
  facet normal 0 1 0
    outer loop
      vertex -8.5 8.5 8
      vertex 8.5 8.5 0
      vertex -8.5 8.5 0
    endloop
  endfacet
  facet normal 0 -1 0
    outer loop
      vertex -7 7 3
      vertex 7 7 8
      vertex -7 7 8
    endloop
  endfacet
  facet normal 0 -1 -0
    outer loop
      vertex 7 7 8
      vertex -7 7 3
      vertex 7 7 3
    endloop
  endfacet
  facet normal -1 0 0
    outer loop
      vertex 7 0 3
      vertex 7 7 8
      vertex 7 7 3
    endloop
  endfacet
  facet normal -1 0 0
    outer loop
      vertex 7 -7 8
      vertex 7 0 3
      vertex 7 -7 3
    endloop
  endfacet
  facet normal -1 0 0
    outer loop
      vertex 7 0 3
      vertex 7 -7 8
      vertex 7 7 8
    endloop
  endfacet
  facet normal 0 -1 0
    outer loop
      vertex -8.5 -8.5 3
      vertex 8.5 -8.5 8
      vertex -8.5 -8.5 8
    endloop
  endfacet
  facet normal 0 -1 -0
    outer loop
      vertex 8.5 -8.5 8
      vertex -8.5 -8.5 3
      vertex 8.5 -8.5 3
    endloop
  endfacet
  facet normal 0 1 -0
    outer loop
      vertex 7 -7 3
      vertex -7 -7 8
      vertex 7 -7 8
    endloop
  endfacet
  facet normal 0 1 0
    outer loop
      vertex -7 -7 8
      vertex 7 -7 3
      vertex -7 -7 3
    endloop
  endfacet
  facet normal 1 0 0
    outer loop
      vertex -7 7 8
      vertex -7 0 3
      vertex -7 7 3
    endloop
  endfacet
  facet normal 1 -0 0
    outer loop
      vertex -7 -7 8
      vertex -7 0 3
      vertex -7 7 8
    endloop
  endfacet
  facet normal 1 0 0
    outer loop
      vertex -7 0 3
      vertex -7 -7 8
      vertex -7 -7 3
    endloop
  endfacet
  facet normal 0 0 -1
    outer loop
      vertex -8.5 7.1 0
      vertex 8.5 8.5 0
      vertex 8.5 7.1 0
    endloop
  endfacet
  facet normal -0 0 -1
    outer loop
      vertex 8.5 8.5 0
      vertex -8.5 7.1 0
      vertex -8.5 8.5 0
    endloop
  endfacet
  facet normal 0 0 -1
    outer loop
      vertex 5.85 0 0
      vertex 8.5 0.9 0
      vertex 8.5 0 0
    endloop
  endfacet
  facet normal 0 0 -1
    outer loop
      vertex 5.60104 0.60104 0
      vertex 8.5 0.9 0
      vertex 5.85 0 0
    endloop
  endfacet
  facet normal 0 0 -1
    outer loop
      vertex 5 0.849999 0
      vertex 8.5 0.9 0
      vertex 5.60104 0.60104 0
    endloop
  endfacet
  facet normal 0 0 -1
    outer loop
      vertex 1.75885 0.9 0
      vertex 4.15 0 0
      vertex 2 0 0
    endloop
  endfacet
  facet normal 0 0 -1
    outer loop
      vertex 4.15 0 0
      vertex 1.75885 0.9 0
      vertex 4.39896 0.60104 0
    endloop
  endfacet
  facet normal 0 0 -1
    outer loop
      vertex 5 0.849999 0
      vertex 1.75885 0.9 0
      vertex 8.5 0.9 0
    endloop
  endfacet
  facet normal 0 0 -1
    outer loop
      vertex 4.39896 0.60104 0
      vertex 1.75885 0.9 0
      vertex 5 0.849999 0
    endloop
  endfacet
  facet normal 0 0 -1
    outer loop
      vertex -4.15 0 0
      vertex -1.75885 0.9 0
      vertex -2 0 0
    endloop
  endfacet
  facet normal 0 0 -1
    outer loop
      vertex -4.39896 0.60104 0
      vertex -1.75885 0.9 0
      vertex -4.15 0 0
    endloop
  endfacet
  facet normal 0 0 -1
    outer loop
      vertex -5 0.849999 0
      vertex -1.75885 0.9 0
      vertex -4.39896 0.60104 0
    endloop
  endfacet
  facet normal 0 0 -1
    outer loop
      vertex -8.5 0.9 0
      vertex -5.85 0 0
      vertex -8.5 0 0
    endloop
  endfacet
  facet normal 0 0 -1
    outer loop
      vertex -5.85 0 0
      vertex -8.5 0.9 0
      vertex -5.60104 0.60104 0
    endloop
  endfacet
  facet normal 0 0 -1
    outer loop
      vertex -5 0.849999 0
      vertex -8.5 0.9 0
      vertex -1.75885 0.9 0
    endloop
  endfacet
  facet normal 0 0 -1
    outer loop
      vertex -5.60104 0.60104 0
      vertex -8.5 0.9 0
      vertex -5 0.849999 0
    endloop
  endfacet
  facet normal 0 -1 0
    outer loop
      vertex -8.5 0 0
      vertex -7 0 3
      vertex -8.5 0 3
    endloop
  endfacet
  facet normal 0 -1 0
    outer loop
      vertex -5.85 0 0
      vertex -7 0 3
      vertex -8.5 0 0
    endloop
  endfacet
  facet normal 0 -1 0
    outer loop
      vertex -7 0 3
      vertex -5.85 0 0
      vertex -5.85 0 3
    endloop
  endfacet
  facet normal 0 -1 0
    outer loop
      vertex 5.85 0 0
      vertex 7 0 3
      vertex 5.85 0 3
    endloop
  endfacet
  facet normal 0 -1 0
    outer loop
      vertex 8.5 0 0
      vertex 7 0 3
      vertex 5.85 0 0
    endloop
  endfacet
  facet normal 0 -1 0
    outer loop
      vertex 7 0 3
      vertex 8.5 0 0
      vertex 8.5 0 3
    endloop
  endfacet
  facet normal 0 -1 0
    outer loop
      vertex -4.15 0 0
      vertex -2 0 3
      vertex -4.15 0 3
    endloop
  endfacet
  facet normal 0 -1 -0
    outer loop
      vertex -2 0 3
      vertex -4.15 0 0
      vertex -2 0 0
    endloop
  endfacet
  facet normal 0 -1 0
    outer loop
      vertex 2 0 0
      vertex 4.15 0 3
      vertex 2 0 3
    endloop
  endfacet
  facet normal 0 -1 -0
    outer loop
      vertex 4.15 0 3
      vertex 2 0 0
      vertex 4.15 0 0
    endloop
  endfacet
  facet normal -0.707107 -0.707107 0
    outer loop
      vertex 1.73205 1 2.15
      vertex 1 1.73205 3
      vertex 1 1.73205 2.15
    endloop
  endfacet
  facet normal -0.707107 -0.707107 0
    outer loop
      vertex 1 1.73205 3
      vertex 1.73205 1 2.15
      vertex 1.73205 1 3
    endloop
  endfacet
  facet normal -0.965914 -0.258865 0
    outer loop
      vertex 1.75885 0.9 2.15
      vertex 1.73205 1 3
      vertex 1.73205 1 2.15
    endloop
  endfacet
  facet normal -0.965927 -0.258815 -0
    outer loop
      vertex 2 0 3
      vertex 1.75885 0.9 2.15
      vertex 2 0 0
    endloop
  endfacet
  facet normal -0.965926 -0.25882 -5.68192e-06
    outer loop
      vertex 1.75885 0.9 2.15
      vertex 2 0 3
      vertex 1.73205 1 3
    endloop
  endfacet
  facet normal -0.965927 -0.258815 0
    outer loop
      vertex 1.75885 0.9 0
      vertex 2 0 0
      vertex 1.75885 0.9 2.15
    endloop
  endfacet
  facet normal -0.25882 -0.965926 0
    outer loop
      vertex 0 2 2.15
      vertex 1 1.73205 3
      vertex 0 2 3
    endloop
  endfacet
  facet normal -0.25882 -0.965926 -0
    outer loop
      vertex 1 1.73205 3
      vertex 0 2 2.15
      vertex 1 1.73205 2.15
    endloop
  endfacet
  facet normal 0.25882 -0.965926 0
    outer loop
      vertex -1 1.73205 2.15
      vertex 0 2 3
      vertex -1 1.73205 3
    endloop
  endfacet
  facet normal 0.25882 -0.965926 0
    outer loop
      vertex 0 2 3
      vertex -1 1.73205 2.15
      vertex 0 2 2.15
    endloop
  endfacet
  facet normal 0.965914 -0.258865 0
    outer loop
      vertex -1.73205 1 3
      vertex -1.75885 0.9 2.15
      vertex -1.73205 1 2.15
    endloop
  endfacet
  facet normal 0.965926 -0.25882 -5.68192e-06
    outer loop
      vertex -2 0 3
      vertex -1.75885 0.9 2.15
      vertex -1.73205 1 3
    endloop
  endfacet
  facet normal 0.965927 -0.258815 0
    outer loop
      vertex -2 0 0
      vertex -1.75885 0.9 2.15
      vertex -2 0 3
    endloop
  endfacet
  facet normal 0.965927 -0.258815 0
    outer loop
      vertex -1.75885 0.9 2.15
      vertex -2 0 0
      vertex -1.75885 0.9 0
    endloop
  endfacet
  facet normal 0.707107 -0.707107 0
    outer loop
      vertex -1.73205 1 3
      vertex -1 1.73205 2.15
      vertex -1 1.73205 3
    endloop
  endfacet
  facet normal 0.707107 -0.707107 0
    outer loop
      vertex -1 1.73205 2.15
      vertex -1.73205 1 3
      vertex -1.73205 1 2.15
    endloop
  endfacet
  facet normal -0.382686 -0.923879 0
    outer loop
      vertex -3.81 3.99 2.15
      vertex -2.78469 3.5653 3
      vertex -3.81 3.99 3
    endloop
  endfacet
  facet normal -0.382686 -0.923879 -0
    outer loop
      vertex -2.78469 3.5653 3
      vertex -3.81 3.99 2.15
      vertex -2.78469 3.5653 2.15
    endloop
  endfacet
  facet normal -0.923881 -0.382681 0
    outer loop
      vertex -2.36 2.54 2.15
      vertex -2.78469 3.5653 3
      vertex -2.78469 3.5653 2.15
    endloop
  endfacet
  facet normal -0.923881 -0.382681 0
    outer loop
      vertex -2.78469 3.5653 3
      vertex -2.36 2.54 2.15
      vertex -2.36 2.54 3
    endloop
  endfacet
  facet normal 0.382689 -0.923877 0
    outer loop
      vertex -4.8353 3.5653 2.15
      vertex -3.81 3.99 3
      vertex -4.8353 3.5653 3
    endloop
  endfacet
  facet normal 0.382689 -0.923877 0
    outer loop
      vertex -3.81 3.99 3
      vertex -4.8353 3.5653 2.15
      vertex -3.81 3.99 2.15
    endloop
  endfacet
  facet normal -0.923882 0.382678 0
    outer loop
      vertex -2.78469 1.51469 2.15
      vertex -2.36 2.54 3
      vertex -2.36 2.54 2.15
    endloop
  endfacet
  facet normal -0.923882 0.382678 0
    outer loop
      vertex -2.36 2.54 3
      vertex -2.78469 1.51469 2.15
      vertex -2.78469 1.51469 3
    endloop
  endfacet
  facet normal 0.923879 0.382686 0
    outer loop
      vertex -4.8353 1.51469 3
      vertex -5.26 2.54 2.15
      vertex -5.26 2.54 3
    endloop
  endfacet
  facet normal 0.923879 0.382686 0
    outer loop
      vertex -5.26 2.54 2.15
      vertex -4.8353 1.51469 3
      vertex -4.8353 1.51469 2.15
    endloop
  endfacet
  facet normal 0.923877 -0.382689 0
    outer loop
      vertex -5.26 2.54 3
      vertex -4.8353 3.5653 2.15
      vertex -4.8353 3.5653 3
    endloop
  endfacet
  facet normal 0.923877 -0.382689 0
    outer loop
      vertex -4.8353 3.5653 2.15
      vertex -5.26 2.54 3
      vertex -5.26 2.54 2.15
    endloop
  endfacet
  facet normal -0.382678 0.923882 0
    outer loop
      vertex -2.78469 1.51469 2.15
      vertex -3.81 1.09 3
      vertex -2.78469 1.51469 3
    endloop
  endfacet
  facet normal -0.382678 0.923882 0
    outer loop
      vertex -3.81 1.09 3
      vertex -2.78469 1.51469 2.15
      vertex -3.81 1.09 2.15
    endloop
  endfacet
  facet normal 0.382681 0.923881 -0
    outer loop
      vertex -3.81 1.09 2.15
      vertex -4.8353 1.51469 3
      vertex -3.81 1.09 3
    endloop
  endfacet
  facet normal 0.382681 0.923881 0
    outer loop
      vertex -4.8353 1.51469 3
      vertex -3.81 1.09 2.15
      vertex -4.8353 1.51469 2.15
    endloop
  endfacet
  facet normal -0.382689 -0.923877 0
    outer loop
      vertex 2.54 6.53 2.15
      vertex 3.5653 6.1053 3
      vertex 2.54 6.53 3
    endloop
  endfacet
  facet normal -0.382689 -0.923877 -0
    outer loop
      vertex 3.5653 6.1053 3
      vertex 2.54 6.53 2.15
      vertex 3.5653 6.1053 2.15
    endloop
  endfacet
  facet normal -0.923877 -0.382689 0
    outer loop
      vertex 3.99 5.08 2.15
      vertex 3.5653 6.1053 3
      vertex 3.5653 6.1053 2.15
    endloop
  endfacet
  facet normal -0.923877 -0.382689 0
    outer loop
      vertex 3.5653 6.1053 3
      vertex 3.99 5.08 2.15
      vertex 3.99 5.08 3
    endloop
  endfacet
  facet normal 0.382686 -0.923879 0
    outer loop
      vertex 1.51469 6.1053 2.15
      vertex 2.54 6.53 3
      vertex 1.51469 6.1053 3
    endloop
  endfacet
  facet normal 0.382686 -0.923879 0
    outer loop
      vertex 2.54 6.53 3
      vertex 1.51469 6.1053 2.15
      vertex 2.54 6.53 2.15
    endloop
  endfacet
  facet normal 0.923881 -0.382681 0
    outer loop
      vertex 1.09 5.08 3
      vertex 1.51469 6.1053 2.15
      vertex 1.51469 6.1053 3
    endloop
  endfacet
  facet normal 0.923881 -0.382681 0
    outer loop
      vertex 1.51469 6.1053 2.15
      vertex 1.09 5.08 3
      vertex 1.09 5.08 2.15
    endloop
  endfacet
  facet normal 0.382686 0.923879 -0
    outer loop
      vertex 2.54 3.63 2.15
      vertex 1.51469 4.0547 3
      vertex 2.54 3.63 3
    endloop
  endfacet
  facet normal 0.382686 0.923879 0
    outer loop
      vertex 1.51469 4.0547 3
      vertex 2.54 3.63 2.15
      vertex 1.51469 4.0547 2.15
    endloop
  endfacet
  facet normal 0.923881 0.382681 0
    outer loop
      vertex 1.51469 4.0547 3
      vertex 1.09 5.08 2.15
      vertex 1.09 5.08 3
    endloop
  endfacet
  facet normal 0.923881 0.382681 0
    outer loop
      vertex 1.09 5.08 2.15
      vertex 1.51469 4.0547 3
      vertex 1.51469 4.0547 2.15
    endloop
  endfacet
  facet normal -0.923877 0.382689 0
    outer loop
      vertex 3.5653 4.0547 2.15
      vertex 3.99 5.08 3
      vertex 3.99 5.08 2.15
    endloop
  endfacet
  facet normal -0.923877 0.382689 0
    outer loop
      vertex 3.99 5.08 3
      vertex 3.5653 4.0547 2.15
      vertex 3.5653 4.0547 3
    endloop
  endfacet
  facet normal -0.382689 0.923877 0
    outer loop
      vertex 3.5653 4.0547 2.15
      vertex 2.54 3.63 3
      vertex 3.5653 4.0547 3
    endloop
  endfacet
  facet normal -0.382689 0.923877 0
    outer loop
      vertex 2.54 3.63 3
      vertex 3.5653 4.0547 2.15
      vertex 2.54 3.63 2.15
    endloop
  endfacet
  facet normal -0.382681 0.923881 0
    outer loop
      vertex 4.8353 1.51469 2.15
      vertex 3.81 1.09 3
      vertex 4.8353 1.51469 3
    endloop
  endfacet
  facet normal -0.382681 0.923881 0
    outer loop
      vertex 3.81 1.09 3
      vertex 4.8353 1.51469 2.15
      vertex 3.81 1.09 2.15
    endloop
  endfacet
  facet normal -0.382689 -0.923877 0
    outer loop
      vertex 3.81 3.99 2.15
      vertex 4.8353 3.5653 3
      vertex 3.81 3.99 3
    endloop
  endfacet
  facet normal -0.382689 -0.923877 -0
    outer loop
      vertex 4.8353 3.5653 3
      vertex 3.81 3.99 2.15
      vertex 4.8353 3.5653 2.15
    endloop
  endfacet
  facet normal -0.923877 -0.382689 0
    outer loop
      vertex 5.26 2.54 2.15
      vertex 4.8353 3.5653 3
      vertex 4.8353 3.5653 2.15
    endloop
  endfacet
  facet normal -0.923877 -0.382689 0
    outer loop
      vertex 4.8353 3.5653 3
      vertex 5.26 2.54 2.15
      vertex 5.26 2.54 3
    endloop
  endfacet
  facet normal 0.382686 -0.923879 0
    outer loop
      vertex 2.78469 3.5653 2.15
      vertex 3.81 3.99 3
      vertex 2.78469 3.5653 3
    endloop
  endfacet
  facet normal 0.382686 -0.923879 0
    outer loop
      vertex 3.81 3.99 3
      vertex 2.78469 3.5653 2.15
      vertex 3.81 3.99 2.15
    endloop
  endfacet
  facet normal -0.923879 0.382686 0
    outer loop
      vertex 4.8353 1.51469 2.15
      vertex 5.26 2.54 3
      vertex 5.26 2.54 2.15
    endloop
  endfacet
  facet normal -0.923879 0.382686 0
    outer loop
      vertex 5.26 2.54 3
      vertex 4.8353 1.51469 2.15
      vertex 4.8353 1.51469 3
    endloop
  endfacet
  facet normal 0.923882 0.382678 0
    outer loop
      vertex 2.78469 1.51469 3
      vertex 2.36 2.54 2.15
      vertex 2.36 2.54 3
    endloop
  endfacet
  facet normal 0.923882 0.382678 0
    outer loop
      vertex 2.36 2.54 2.15
      vertex 2.78469 1.51469 3
      vertex 2.78469 1.51469 2.15
    endloop
  endfacet
  facet normal 0.923881 -0.382681 0
    outer loop
      vertex 2.36 2.54 3
      vertex 2.78469 3.5653 2.15
      vertex 2.78469 3.5653 3
    endloop
  endfacet
  facet normal 0.923881 -0.382681 0
    outer loop
      vertex 2.78469 3.5653 2.15
      vertex 2.36 2.54 3
      vertex 2.36 2.54 2.15
    endloop
  endfacet
  facet normal 0.382678 0.923882 -0
    outer loop
      vertex 3.81 1.09 2.15
      vertex 2.78469 1.51469 3
      vertex 3.81 1.09 3
    endloop
  endfacet
  facet normal 0.382678 0.923882 0
    outer loop
      vertex 2.78469 1.51469 3
      vertex 3.81 1.09 2.15
      vertex 2.78469 1.51469 2.15
    endloop
  endfacet
  facet normal 0.382689 0.923877 -0
    outer loop
      vertex -2.54 3.63 2.15
      vertex -3.5653 4.0547 3
      vertex -2.54 3.63 3
    endloop
  endfacet
  facet normal 0.382689 0.923877 0
    outer loop
      vertex -3.5653 4.0547 3
      vertex -2.54 3.63 2.15
      vertex -3.5653 4.0547 2.15
    endloop
  endfacet
  facet normal -0.382686 -0.923879 0
    outer loop
      vertex -2.54 6.53 2.15
      vertex -1.51469 6.1053 3
      vertex -2.54 6.53 3
    endloop
  endfacet
  facet normal -0.382686 -0.923879 -0
    outer loop
      vertex -1.51469 6.1053 3
      vertex -2.54 6.53 2.15
      vertex -1.51469 6.1053 2.15
    endloop
  endfacet
  facet normal -0.923881 -0.382681 0
    outer loop
      vertex -1.09 5.08 2.15
      vertex -1.51469 6.1053 3
      vertex -1.51469 6.1053 2.15
    endloop
  endfacet
  facet normal -0.923881 -0.382681 0
    outer loop
      vertex -1.51469 6.1053 3
      vertex -1.09 5.08 2.15
      vertex -1.09 5.08 3
    endloop
  endfacet
  facet normal -0.382686 0.923879 0
    outer loop
      vertex -1.51469 4.0547 2.15
      vertex -2.54 3.63 3
      vertex -1.51469 4.0547 3
    endloop
  endfacet
  facet normal -0.382686 0.923879 0
    outer loop
      vertex -2.54 3.63 3
      vertex -1.51469 4.0547 2.15
      vertex -2.54 3.63 2.15
    endloop
  endfacet
  facet normal -0.923881 0.382681 0
    outer loop
      vertex -1.51469 4.0547 2.15
      vertex -1.09 5.08 3
      vertex -1.09 5.08 2.15
    endloop
  endfacet
  facet normal -0.923881 0.382681 0
    outer loop
      vertex -1.09 5.08 3
      vertex -1.51469 4.0547 2.15
      vertex -1.51469 4.0547 3
    endloop
  endfacet
  facet normal 0.923877 -0.382689 0
    outer loop
      vertex -3.99 5.08 3
      vertex -3.5653 6.1053 2.15
      vertex -3.5653 6.1053 3
    endloop
  endfacet
  facet normal 0.923877 -0.382689 0
    outer loop
      vertex -3.5653 6.1053 2.15
      vertex -3.99 5.08 3
      vertex -3.99 5.08 2.15
    endloop
  endfacet
  facet normal 0.382689 -0.923877 0
    outer loop
      vertex -3.5653 6.1053 2.15
      vertex -2.54 6.53 3
      vertex -3.5653 6.1053 3
    endloop
  endfacet
  facet normal 0.382689 -0.923877 0
    outer loop
      vertex -2.54 6.53 3
      vertex -3.5653 6.1053 2.15
      vertex -2.54 6.53 2.15
    endloop
  endfacet
  facet normal 0.923877 0.382689 0
    outer loop
      vertex -3.5653 4.0547 3
      vertex -3.99 5.08 2.15
      vertex -3.99 5.08 3
    endloop
  endfacet
  facet normal 0.923877 0.382689 0
    outer loop
      vertex -3.99 5.08 2.15
      vertex -3.5653 4.0547 3
      vertex -3.5653 4.0547 2.15
    endloop
  endfacet
  facet normal -0.382684 -0.923879 0
    outer loop
      vertex -5 0.849999 0
      vertex -4.39896 0.60104 3
      vertex -5 0.849999 3
    endloop
  endfacet
  facet normal -0.382684 -0.923879 -0
    outer loop
      vertex -4.39896 0.60104 3
      vertex -5 0.849999 0
      vertex -4.39896 0.60104 0
    endloop
  endfacet
  facet normal -0.923879 -0.382685 0
    outer loop
      vertex -4.15 0 0
      vertex -4.39896 0.60104 3
      vertex -4.39896 0.60104 0
    endloop
  endfacet
  facet normal -0.923879 -0.382685 0
    outer loop
      vertex -4.39896 0.60104 3
      vertex -4.15 0 0
      vertex -4.15 0 3
    endloop
  endfacet
  facet normal 0.923879 -0.382685 0
    outer loop
      vertex -5.85 0 3
      vertex -5.60104 0.60104 0
      vertex -5.60104 0.60104 3
    endloop
  endfacet
  facet normal 0.923879 -0.382685 0
    outer loop
      vertex -5.60104 0.60104 0
      vertex -5.85 0 3
      vertex -5.85 0 0
    endloop
  endfacet
  facet normal 0.382684 -0.923879 0
    outer loop
      vertex -5.60104 0.60104 0
      vertex -5 0.849999 3
      vertex -5.60104 0.60104 3
    endloop
  endfacet
  facet normal 0.382684 -0.923879 0
    outer loop
      vertex -5 0.849999 3
      vertex -5.60104 0.60104 0
      vertex -5 0.849999 0
    endloop
  endfacet
  facet normal -0.382684 -0.923879 0
    outer loop
      vertex 5 0.849999 0
      vertex 5.60104 0.60104 3
      vertex 5 0.849999 3
    endloop
  endfacet
  facet normal -0.382684 -0.923879 -0
    outer loop
      vertex 5.60104 0.60104 3
      vertex 5 0.849999 0
      vertex 5.60104 0.60104 0
    endloop
  endfacet
  facet normal -0.923879 -0.382685 0
    outer loop
      vertex 5.85 0 0
      vertex 5.60104 0.60104 3
      vertex 5.60104 0.60104 0
    endloop
  endfacet
  facet normal -0.923879 -0.382685 0
    outer loop
      vertex 5.60104 0.60104 3
      vertex 5.85 0 0
      vertex 5.85 0 3
    endloop
  endfacet
  facet normal 0.382684 -0.923879 0
    outer loop
      vertex 4.39896 0.60104 0
      vertex 5 0.849999 3
      vertex 4.39896 0.60104 3
    endloop
  endfacet
  facet normal 0.382684 -0.923879 0
    outer loop
      vertex 5 0.849999 3
      vertex 4.39896 0.60104 0
      vertex 5 0.849999 0
    endloop
  endfacet
  facet normal 0.923879 -0.382685 0
    outer loop
      vertex 4.15 0 3
      vertex 4.39896 0.60104 0
      vertex 4.39896 0.60104 3
    endloop
  endfacet
  facet normal 0.923879 -0.382685 0
    outer loop
      vertex 4.39896 0.60104 0
      vertex 4.15 0 3
      vertex 4.15 0 0
    endloop
  endfacet
  facet normal 0 0 -1
    outer loop
      vertex -1.73205 1 2.15
      vertex -2.78469 1.51469 2.15
      vertex -2.36 2.54 2.15
    endloop
  endfacet
  facet normal 0 0 -1
    outer loop
      vertex -1.75885 0.9 2.15
      vertex -3.81 1.09 2.15
      vertex -2.78469 1.51469 2.15
    endloop
  endfacet
  facet normal -0 0 -1
    outer loop
      vertex -4.8353 1.51469 2.15
      vertex -8.5 0.9 2.15
      vertex -5.26 2.54 2.15
    endloop
  endfacet
  facet normal -0 0 -1
    outer loop
      vertex -3.81 1.09 2.15
      vertex -8.5 0.9 2.15
      vertex -4.8353 1.51469 2.15
    endloop
  endfacet
  facet normal 0 0 -1
    outer loop
      vertex -8.5 0.9 2.15
      vertex -3.81 1.09 2.15
      vertex -1.75885 0.9 2.15
    endloop
  endfacet
  facet normal 0 0 -1
    outer loop
      vertex 1.51469 4.0547 2.15
      vertex -1.51469 4.0547 2.15
      vertex -1.09 5.08 2.15
    endloop
  endfacet
  facet normal 0 0 -1
    outer loop
      vertex -2.36 2.54 2.15
      vertex -1 1.73205 2.15
      vertex -1.73205 1 2.15
    endloop
  endfacet
  facet normal 0 0 -1
    outer loop
      vertex -2.78469 1.51469 2.15
      vertex -1.73205 1 2.15
      vertex -1.75885 0.9 2.15
    endloop
  endfacet
  facet normal 0 0 -1
    outer loop
      vertex -1 1.73205 2.15
      vertex -2.36 2.54 2.15
      vertex -1.51469 4.0547 2.15
    endloop
  endfacet
  facet normal 0 0 -1
    outer loop
      vertex -2.36 2.54 2.15
      vertex -2.54 3.63 2.15
      vertex -1.51469 4.0547 2.15
    endloop
  endfacet
  facet normal 0 0 -1
    outer loop
      vertex -2.78469 3.5653 2.15
      vertex -2.54 3.63 2.15
      vertex -2.36 2.54 2.15
    endloop
  endfacet
  facet normal 0 0 -1
    outer loop
      vertex -2.78469 3.5653 2.15
      vertex -3.5653 4.0547 2.15
      vertex -2.54 3.63 2.15
    endloop
  endfacet
  facet normal 0 0 -1
    outer loop
      vertex -3.81 3.99 2.15
      vertex -3.5653 4.0547 2.15
      vertex -2.78469 3.5653 2.15
    endloop
  endfacet
  facet normal 0 0 -1
    outer loop
      vertex -3.81 3.99 2.15
      vertex -3.99 5.08 2.15
      vertex -3.5653 4.0547 2.15
    endloop
  endfacet
  facet normal 0 -0 -1
    outer loop
      vertex -3.99 5.08 2.15
      vertex -3.81 3.99 2.15
      vertex -4.8353 3.5653 2.15
    endloop
  endfacet
  facet normal 0 0 -1
    outer loop
      vertex 3.81 3.99 2.15
      vertex 3.99 5.08 2.15
      vertex 4.8353 3.5653 2.15
    endloop
  endfacet
  facet normal 0 0 -1
    outer loop
      vertex 3.81 3.99 2.15
      vertex 3.5653 4.0547 2.15
      vertex 3.99 5.08 2.15
    endloop
  endfacet
  facet normal 0 0 -1
    outer loop
      vertex 2.78469 3.5653 2.15
      vertex 3.5653 4.0547 2.15
      vertex 3.81 3.99 2.15
    endloop
  endfacet
  facet normal 0 0 -1
    outer loop
      vertex 2.78469 3.5653 2.15
      vertex 2.54 3.63 2.15
      vertex 3.5653 4.0547 2.15
    endloop
  endfacet
  facet normal 0 0 -1
    outer loop
      vertex 2.36 2.54 2.15
      vertex 2.54 3.63 2.15
      vertex 2.78469 3.5653 2.15
    endloop
  endfacet
  facet normal -0 0 -1
    outer loop
      vertex 2.78469 1.51469 2.15
      vertex 1.73205 1 2.15
      vertex 2.36 2.54 2.15
    endloop
  endfacet
  facet normal 0 0 -1
    outer loop
      vertex 1 1.73205 2.15
      vertex 2.36 2.54 2.15
      vertex 1.73205 1 2.15
    endloop
  endfacet
  facet normal 0 -0 -1
    outer loop
      vertex 1.51469 4.0547 2.15
      vertex 2.36 2.54 2.15
      vertex 1 1.73205 2.15
    endloop
  endfacet
  facet normal 0 0 -1
    outer loop
      vertex 2.36 2.54 2.15
      vertex 1.51469 4.0547 2.15
      vertex 2.54 3.63 2.15
    endloop
  endfacet
  facet normal 0 0 -1
    outer loop
      vertex 0 2 2.15
      vertex 1.51469 4.0547 2.15
      vertex 1 1.73205 2.15
    endloop
  endfacet
  facet normal 0 0 -1
    outer loop
      vertex 8.5 0.9 2.15
      vertex 5.26 2.54 2.15
      vertex 8.5 7.1 2.15
    endloop
  endfacet
  facet normal 0 0 -1
    outer loop
      vertex 8.5 0.9 2.15
      vertex 4.8353 1.51469 2.15
      vertex 5.26 2.54 2.15
    endloop
  endfacet
  facet normal 0 0 -1
    outer loop
      vertex 8.5 0.9 2.15
      vertex 3.81 1.09 2.15
      vertex 4.8353 1.51469 2.15
    endloop
  endfacet
  facet normal 0 0 -1
    outer loop
      vertex 1.73205 1 2.15
      vertex 2.78469 1.51469 2.15
      vertex 1.75885 0.9 2.15
    endloop
  endfacet
  facet normal -0 0 -1
    outer loop
      vertex 3.81 1.09 2.15
      vertex 1.75885 0.9 2.15
      vertex 2.78469 1.51469 2.15
    endloop
  endfacet
  facet normal 0 0 -1
    outer loop
      vertex 1.75885 0.9 2.15
      vertex 3.81 1.09 2.15
      vertex 8.5 0.9 2.15
    endloop
  endfacet
  facet normal 0 0 -1
    outer loop
      vertex 4.8353 3.5653 2.15
      vertex 8.5 7.1 2.15
      vertex 5.26 2.54 2.15
    endloop
  endfacet
  facet normal 0 0 -1
    outer loop
      vertex 3.99 5.08 2.15
      vertex 8.5 7.1 2.15
      vertex 4.8353 3.5653 2.15
    endloop
  endfacet
  facet normal 0 0 -1
    outer loop
      vertex 3.5653 6.1053 2.15
      vertex 8.5 7.1 2.15
      vertex 3.99 5.08 2.15
    endloop
  endfacet
  facet normal 0 0 -1
    outer loop
      vertex 2.54 6.53 2.15
      vertex 8.5 7.1 2.15
      vertex 3.5653 6.1053 2.15
    endloop
  endfacet
  facet normal 0 0 -1
    outer loop
      vertex -1.51469 4.0547 2.15
      vertex 1.51469 4.0547 2.15
      vertex 0 2 2.15
    endloop
  endfacet
  facet normal 0 0 -1
    outer loop
      vertex -1.51469 4.0547 2.15
      vertex 0 2 2.15
      vertex -1 1.73205 2.15
    endloop
  endfacet
  facet normal 0 0 -1
    outer loop
      vertex 1.51469 4.0547 2.15
      vertex -1.09 5.08 2.15
      vertex 1.09 5.08 2.15
    endloop
  endfacet
  facet normal 0 0 -1
    outer loop
      vertex 1.09 5.08 2.15
      vertex -1.09 5.08 2.15
      vertex 1.51469 6.1053 2.15
    endloop
  endfacet
  facet normal 0 0 -1
    outer loop
      vertex -1.51469 6.1053 2.15
      vertex 1.51469 6.1053 2.15
      vertex -1.09 5.08 2.15
    endloop
  endfacet
  facet normal 0 0 -1
    outer loop
      vertex 1.51469 6.1053 2.15
      vertex -1.51469 6.1053 2.15
      vertex 2.54 6.53 2.15
    endloop
  endfacet
  facet normal 0 0 -1
    outer loop
      vertex -2.54 6.53 2.15
      vertex 2.54 6.53 2.15
      vertex -1.51469 6.1053 2.15
    endloop
  endfacet
  facet normal 0 0 -1
    outer loop
      vertex -2.54 6.53 2.15
      vertex 8.5 7.1 2.15
      vertex 2.54 6.53 2.15
    endloop
  endfacet
  facet normal 0 0 -1
    outer loop
      vertex -8.5 7.1 2.15
      vertex -3.99 5.08 2.15
      vertex -4.8353 3.5653 2.15
    endloop
  endfacet
  facet normal 0 0 -1
    outer loop
      vertex -8.5 7.1 2.15
      vertex -5.26 2.54 2.15
      vertex -8.5 0.9 2.15
    endloop
  endfacet
  facet normal 0 0 -1
    outer loop
      vertex -5.26 2.54 2.15
      vertex -8.5 7.1 2.15
      vertex -4.8353 3.5653 2.15
    endloop
  endfacet
  facet normal 0 0 -1
    outer loop
      vertex -2.54 6.53 2.15
      vertex -8.5 7.1 2.15
      vertex 8.5 7.1 2.15
    endloop
  endfacet
  facet normal 0 0 -1
    outer loop
      vertex -3.5653 6.1053 2.15
      vertex -8.5 7.1 2.15
      vertex -2.54 6.53 2.15
    endloop
  endfacet
  facet normal 0 0 -1
    outer loop
      vertex -3.99 5.08 2.15
      vertex -8.5 7.1 2.15
      vertex -3.5653 6.1053 2.15
    endloop
  endfacet
  facet normal 0 -1 0
    outer loop
      vertex -8.5 7.1 0
      vertex 8.5 7.1 2.15
      vertex -8.5 7.1 2.15
    endloop
  endfacet
  facet normal 0 -1 -0
    outer loop
      vertex 8.5 7.1 2.15
      vertex -8.5 7.1 0
      vertex 8.5 7.1 0
    endloop
  endfacet
  facet normal 0 1 -0
    outer loop
      vertex -1.75885 0.9 0
      vertex -8.5 0.9 2.15
      vertex -1.75885 0.9 2.15
    endloop
  endfacet
  facet normal 0 1 0
    outer loop
      vertex -8.5 0.9 2.15
      vertex -1.75885 0.9 0
      vertex -8.5 0.9 0
    endloop
  endfacet
  facet normal 0 1 -0
    outer loop
      vertex 8.5 0.9 0
      vertex 1.75885 0.9 2.15
      vertex 8.5 0.9 2.15
    endloop
  endfacet
  facet normal 0 1 0
    outer loop
      vertex 1.75885 0.9 2.15
      vertex 8.5 0.9 0
      vertex 1.75885 0.9 0
    endloop
  endfacet
endsolid OpenSCAD_Model
